<?xml version="1.0" encoding="utf-8"?>
<!-- Generator: Adobe Illustrator 25.2.1, SVG Export Plug-In . SVG Version: 6.00 Build 0)  -->
<svg version="1.1" id="Camada_1" xmlns="http://www.w3.org/2000/svg" xmlns:xlink="http://www.w3.org/1999/xlink" x="0px" y="0px"
	 viewBox="0 0 62 62" style="enable-background:new 0 0 62 62;" xml:space="preserve">
<style type="text/css">
	.st0{fill:#0095F7;}
	.st1{fill:#FFFFFF;}
</style>
<rect y="0" class="st0" width="62" height="62"/>
<path class="st1" d="M46.3,52.4H34.5c-0.9,0-1.3-0.3-1.3-1s0.5-0.9,1.4-0.9h8.6c0.2,0,0.4,0,0.5,0V10.8H16.8v39.7h9.4h0.6
	c0.5,0.1,0.9,0.5,0.8,1c0,0.4-0.3,0.7-0.7,0.8c-0.2,0-0.4,0.1-0.6,0H14.3V55h32L46.3,52.4z M51.8,29.8v-6.6h-2.3v6.6H51.8z"/>
<g id="XMLID_2_">
	<g>
		<path class="st1" d="M49.8,32.3v-0.6h-1c-0.7,0-1.1-0.3-1.1-1.1c0-0.9,0-1.9,0-2.8c0-0.3-0.1-0.5-0.5-0.5c-0.5,0-1,0-1.5,0v20h4
			v-0.5c0-1.4,0-2.9,0-4.3c0-0.8,0.4-1.2,1-1.2c0.6,0,0.9,0.4,0.9,1.1c0,1.6,0,3.2,0,4.7c0,0.3,0,0.7,0,1c0,0.6-0.4,1-0.9,1.1
			c-0.1,0-0.1,0-0.2,0c-0.7,0-1.4,0-2.1,0h-2.8v1.1H47c0.9,0,1.2,0.3,1.2,1.2v4c0,0.9-0.3,1.2-1.2,1.2c-11.1,0-22.3,0-33.4,0
			c-0.9,0-1.2-0.3-1.2-1.2v-4c0-0.9,0.3-1.2,1.2-1.2h1.3v-0.7c0-13.2,0-26.4,0-39.6c-0.1-0.5,0.1-1,0.5-1.3h29.7
			c0.3,0.3,0.5,0.8,0.5,1.3c0,4.9,0,9.8,0,14.7v0.6h2V24c0-0.6,0-1.2,0-1.7c-0.1-0.5,0.3-0.9,0.8-1c0.1,0,0.1,0,0.2,0
			c0.4,0,0.7,0,1.1,0v-4c-0.2,0-0.5,0-0.7,0c-0.7,0-1.1-0.4-1.1-0.9c0-0.6,0.4-0.9,1.1-0.9h3.4c0.7,0,1.1,0.4,1.1,0.9
			c0,0.5-0.5,0.9-1,0.9c-0.3,0-0.5,0-0.8,0v4c0.3,0,0.6,0,1,0c0.8,0,1.2,0.4,1.2,1.2v8.2c0,0.8-0.4,1.1-1.1,1.1h-1
			c0,0.2,0,0.4,0,0.5c0,0.8,0,1.7,0,2.5c0,0.8-0.4,1.1-0.9,1.1c-0.6,0-0.9-0.4-0.9-1.1C49.8,34,49.8,33.1,49.8,32.3z"/>
	</g>
	<g>
	</g>
</g>
<path class="st1" d="M51.6,38.6c0.1,0.5-0.3,1-0.8,1c-0.5,0.1-1-0.3-1-0.8c0-0.1,0-0.1,0-0.2c0-0.5,0.5-0.9,1-0.9
	C51.2,37.7,51.6,38.2,51.6,38.6z"/>
<g id="XMLID_1_">
	<g>
		<path class="st1" d="M41.8,14.1v5.7c0,0.9-0.3,1.2-1.3,1.2H30.3H20.1c-1.1,0-1.3-0.3-1.3-1.3c0-1.9,0-3.7,0-5.6
			c0-0.9,0.3-1.2,1.2-1.2h20.4C41.4,12.8,41.7,13.1,41.8,14.1z M39.8,19.1v-4.4H20.7v4.4H39.8z"/>
		<rect x="20.7" y="14.7" class="st0" width="19.1" height="4.3"/>
	</g>
	<g>
	</g>
</g>
<path class="st0" d="M29.4,37.9h-4c-1,0-1.4-0.6-1-1.5c0.7-1.6,1.4-3.1,2-4.7c1-2.3,2-4.6,2.9-6.8c0.1-0.2,0.1-0.3,0.2-0.5
	c0.3-0.4,0.9-0.5,1.3-0.2c0.2,0.1,0.3,0.3,0.4,0.6c0,0.2,0.1,0.4,0,0.7v8.4h0.5c1.2,0,2.3,0,3.5,0c0.9,0,1.3,0.6,1,1.5
	c-1.7,3.9-3.3,7.8-5,11.8c-0.3,0.5-0.9,0.6-1.4,0.4c-0.3-0.2-0.5-0.4-0.5-0.8c0-2.7,0-5.3,0-8L29.4,37.9z M26.6,36h3.3
	c1.1,0,1.4,0.3,1.4,1.4v4c0,0.1,0,0.3,0,0.4h0.1l2.7-6.3h-3.4c-1,0-1.3-0.3-1.3-1.2v-3.9c0-0.2,0-0.3,0-0.5h-0.1L26.6,36z"/>
<path class="st1" d="M29.4,51.5c0-0.5,0.5-0.9,1-0.9c0.5,0,0.9,0.4,0.9,1c0,0,0,0,0,0c0,0.5-0.4,0.9-1,0.9c0,0,0,0,0,0
	C29.8,52.5,29.4,52.1,29.4,51.5C29.4,51.5,29.4,51.5,29.4,51.5z"/>
</svg>
