<?xml version="1.0" encoding="utf-8"?>
<!-- Generator: Adobe Illustrator 25.2.1, SVG Export Plug-In . SVG Version: 6.00 Build 0)  -->
<svg version="1.1" id="Camada_1" xmlns="http://www.w3.org/2000/svg" xmlns:xlink="http://www.w3.org/1999/xlink" x="0px" y="0px"
	 viewBox="0 0 62 62" style="enable-background:new 0 0 62 62;" xml:space="preserve">
<style type="text/css">
	.st0{fill:#0095F7;}
	.st1{fill:#FFFFFF;}
</style>
<rect y="0" class="st0" width="62" height="62"/>
<path class="st1" d="M17.5,58c-0.8-0.2-1.7-0.4-2.5-0.7c-2-0.8-3.6-2.5-4.1-4.7c-0.2-0.8,0.3-1.4,1.2-1.3c1.2,0.1,2.3,0.2,3.5,0.3
	c0.4,0,0.5-0.1,0.6-0.4c0.2-0.6,0.1-1.3-0.2-1.8c-1.2,0.1-2.4,0.2-3.6,0.3c-0.5,0.1-1,0-1.3-0.4c-0.2-0.3-0.2-0.6-0.2-0.9
	c0.6-3.1,3.2-5.4,6.4-5.6c3-0.3,5.8,1.1,7.4,3.6c0.1,0.2,0.4,0.4,0.7,0.4h11.1c0.3,0,0.6-0.1,0.7-0.4c1.3-2.8,4.3-4.5,7.4-4.2
	c2.2,0.1,4.3,1.1,5.6,2.9c0.5,0.8,0.9,1.6,1.2,2.4c0.3,0.7-0.3,1.4-1.2,1.3c-1.1,0-2.1-0.2-3.2-0.3c-0.8-0.1-0.9,0-1,0.8
	c0,0.1,0,0.2,0,0.3c0,1,0.1,1.2,1.2,1.1s2-0.2,3-0.2c0.6-0.1,1.1,0.3,1.2,0.9c0,0.2,0,0.4-0.1,0.6c-0.5,2.4-2.3,4.3-4.6,5.1
	c-3,1-6.3,0.1-8.4-2.2c-0.2-0.1-0.3-0.3-0.4-0.5c-0.3-0.8-1-0.8-1.7-0.8c-3.4,0-6.9,0-10.3,0c-0.3,0-0.6,0.1-0.7,0.4
	c-1.1,2.3-3.4,3.9-5.9,4.1c0,0-0.1,0-0.1,0H17.5z"/>
<path class="st1" d="M46.2,35.8H15.9c0.1-1.7,0-3.4,0.6-5c0.7-1.7,2-3.2,3.6-4.1c2.1-1.3,4.6-1.6,6.9-0.9c2.7,0.8,5.6,0.8,8.4,0
	c2.6-0.8,5.4-0.3,7.6,1.4c2,1.4,3.2,3.6,3.2,6C46.1,34.1,46.2,35,46.2,35.8z"/>
<path class="st1" d="M38.9,11.9c0,4.3-3.5,7.8-7.8,7.8s-7.8-3.5-7.8-7.8c0-4.3,3.5-7.8,7.8-7.8c0,0,0,0,0,0
	C35.4,4.1,38.9,7.6,38.9,11.9z"/>
</svg>
