<?xml version="1.0" encoding="utf-8"?>
<!-- Generator: Adobe Illustrator 25.2.1, SVG Export Plug-In . SVG Version: 6.00 Build 0)  -->
<svg version="1.1" id="Camada_1" xmlns="http://www.w3.org/2000/svg" xmlns:xlink="http://www.w3.org/1999/xlink" x="0px" y="0px"
	 viewBox="0 0 62 62" style="enable-background:new 0 0 62 62;" xml:space="preserve">
<style type="text/css">
	.st0{fill:#0095F7;}
	.st1{fill:#FFFFFF;}
	.st2{font-family:'Gotham-Bold';}
	.st3{font-size:11px;}
	.st4{letter-spacing:-1;}
</style>
<rect y="0" class="st0" width="62" height="62"/>
<path class="st1" d="M13.7,18.5h7.6c1.3,0.1,2.5-0.8,2.6-2.1c0-0.2,0-0.3,0-0.5c0-2.1,0-4.2,0-6.3V9h23.2c0.9,0,1.1,0.2,1.1,1.1
	v12.2H22.7c-1.3-0.2-2.5,0.8-2.7,2.1c0,0.2,0,0.4,0,0.6c0,4.5,0,9,0,13.5c0,0.3,0,0.6,0.1,0.9c0.3,1.1,1.4,1.9,2.5,1.8h25.6
	c0,0.1,0,0.2,0,0.3c0,3.5,0,6.9,0,10.4c0,0.4-0.2,0.8-0.6,1H14.3"/>
<path class="st1" d="M15,16.8l7.4-6.8c0,0.2,0,0.3,0,0.4V16c0,0.7-0.3,1-0.9,1h-6.1"/>
<text transform="matrix(1 0 0 1 21.385 34.9899)" class="st1 st2 st3">I</text>
<text transform="matrix(1 0 0 1 24.985 34.9899)" class="st1 st2 st3">P</text>
<text transform="matrix(1 0 0 1 32.275 34.9899)" class="st1 st2 st3 st4">V</text>
<text transform="matrix(1 0 0 1 39.535 34.9899)" class="st1 st2 st3">A</text>
</svg>
