<svg width="153" height="39" viewBox="0 0 153 39" fill="none" xmlns="http://www.w3.org/2000/svg">
<path d="M8.27132 35.1457C8.21445 36.283 8.16811 37.1808 8.11967 38.1695H0V0H8.18918V13.6678C10.4555 11.4696 12.6123 9.95258 15.4516 9.64298C22.733 8.84215 28.9317 13.5295 29.9996 20.9516C30.7621 26.2788 30.0712 31.3191 25.9219 35.4099C21.6546 39.6184 13.4275 40.3449 9.01483 35.6163C8.89056 35.4842 8.70521 35.4161 8.27132 35.1457ZM21.8905 24.2684C21.8905 20.4645 19.879 17.5192 16.7301 16.7204C13.1494 15.8123 9.6067 17.8474 8.51565 21.4676C7.17396 25.8619 9.16859 30.4274 12.9578 31.641C17.6211 33.123 21.8884 29.6142 21.8905 24.2684Z" fill="white"/>
<path d="M109.747 18.2622C109.033 16.1281 108.372 14.1549 107.641 11.998C113.631 9.62647 119.556 8.66052 125.62 10.9454C129.683 12.4768 131.518 15.8639 131.682 19.8515C131.939 25.899 131.749 31.9651 131.749 38.1488H123.912C123.832 37.4697 123.752 36.768 123.701 36.3944C121.306 37.2076 118.981 38.3552 116.527 38.7618C111.586 39.5874 107.028 37.0508 105.709 33.189C103.685 27.2427 107.23 21.868 113.857 21.3045C117.079 21.0321 120.361 21.4428 123.665 21.544C123.95 19.5811 122.758 17.7772 120.371 17.1064C117.452 16.2808 114.611 16.9 111.786 17.6224C111.19 17.7607 110.604 17.9815 109.747 18.2622ZM118.53 25.8391C117.601 26.1095 116.127 26.2994 114.901 26.9475C112.696 28.1116 112.669 31.1828 114.71 32.4914C117.168 34.0662 121.814 33.0487 123.314 30.607C124.685 28.3758 124.028 26.8113 121.475 26.2726C120.679 26.1054 119.866 26.027 118.53 25.8309V25.8391Z" fill="white"/>
<path d="M49.8364 21.9919C49.4594 18.4501 47.7955 16.7225 44.4002 16.7968C41.5441 16.8587 38.6985 17.4635 35.6276 17.8556C35.1452 16.4748 34.4838 14.8195 34.031 13.1084C33.9194 12.6812 34.3533 11.773 34.7556 11.612C39.6105 9.68221 44.6319 9.07746 49.7733 10.2932C54.6177 11.4407 57.3411 14.7307 57.6128 19.3933C57.9751 25.6039 57.7034 31.8495 57.7034 38.1756H49.8723C49.807 37.4491 49.748 36.7804 49.708 36.3181C47.469 37.1292 45.2848 38.2355 42.9679 38.6607C41.1881 38.9889 39.1766 38.7144 37.3905 38.2479C33.5192 37.251 31.3497 34.3263 31.2823 30.5058C31.2044 26.0579 33.0516 23.2819 37.0367 21.9238C40.7984 20.6482 44.6087 20.8381 48.4231 21.6926C48.8275 21.7917 49.2404 21.8701 49.8364 21.9919ZM44.5434 25.8061C43.5429 26.1054 42.077 26.3159 40.849 26.962C38.8607 28.0084 38.6564 30.7411 40.2824 32.1736C42.8773 34.4625 48.6443 32.9599 49.7164 29.7153C50.422 27.5812 50.0028 26.8258 47.7892 26.3304C46.875 26.1302 45.9356 26.027 44.5434 25.8061Z" fill="white"/>
<path d="M104.528 33.8351C99.159 40.1633 88.7519 40.7577 82.5573 35.1684C76.3228 29.5419 76.2385 19.4201 82.3973 13.546C88.3222 7.88446 98.9715 8.192 104.559 14.3716L99.5297 19.707C97.3855 17.577 94.9612 16.0909 91.9345 16.7658C90.4792 17.0986 89.147 17.821 88.0863 18.8525C85.2492 21.7566 85.4113 26.9888 88.1853 29.8928C91.0646 32.9063 95.1191 32.6462 99.7698 29.1044L104.528 33.8351Z" fill="white"/>
<path d="M77.2559 30.9806C77.2559 32.8526 77.3169 34.7535 77.2053 36.6421C77.1822 37.0549 76.5987 37.5791 76.1522 37.7628C73.1423 39.0012 70.0166 39.2592 66.9078 38.2458C63.6957 37.1973 62.5457 34.6194 62.4551 31.575C62.3308 27.4924 62.3982 23.4036 62.3835 19.3169C62.3835 18.6441 62.3835 17.9733 62.3835 17.16L59.0682 16.9743V10.1631L62.335 10.0124V2.95771H70.6317V10.0063H77.3127V16.9929H70.7138C70.7138 21.3809 70.6485 25.5688 70.7538 29.7525C70.7875 31.0363 71.8596 31.7071 73.1528 31.6101C74.4461 31.5131 75.7415 31.2262 77.2559 30.9806Z" fill="white"/>
<path d="M135.477 10.1507C136.109 10.1177 136.531 10.0744 136.973 10.0723C139.113 10.0723 141.253 10.0723 143.618 10.0723V14.3221L144.014 14.4521C144.315 14.0393 144.625 13.6451 144.916 13.2323C146.483 11.0135 148.61 9.74619 151.382 9.53979C152.435 9.46135 153.046 9.70284 152.997 10.933C152.919 12.9082 153.033 14.8938 152.93 16.867C152.907 17.2942 152.365 17.9774 151.961 18.0579C145.853 19.2612 143.759 21.6781 143.707 27.7587C143.679 31.1581 143.707 34.5575 143.707 38.1075H135.477V10.1507Z" fill="white"/>
</svg>
