<?xml version="1.0" encoding="utf-8"?>
<!-- Generator: Adobe Illustrator 25.2.1, SVG Export Plug-In . SVG Version: 6.00 Build 0)  -->
<svg version="1.1" id="Camada_1" xmlns="http://www.w3.org/2000/svg" xmlns:xlink="http://www.w3.org/1999/xlink" x="0px" y="0px"
	 viewBox="0 0 62 62" style="enable-background:new 0 0 62 62;" xml:space="preserve">
<style type="text/css">
	.st0{fill:#0095F7;}
	.st1{fill:#FFFFFF;}
</style>
<rect y="0" class="st0" width="62" height="62"/>
<path class="st1" d="M10,18c0.1-0.4,0.2-0.8,0.3-1.2c0.8-2.4,3.1-4.1,5.7-4c9,0,17.9,0,26.9,0c1.3-0.1,2.6,0.3,3.8,1
	c0.9,0.5,1.4,1.5,1.4,2.6c0,0.1,0,0.3-0.1,0.4c-0.6,0.6-1.2,1.2-1.9,1.8c-0.1-0.3-0.1-0.5-0.2-0.8c-0.3-1.2-1.4-2-2.6-2.1H16.1
	c-1.4-0.1-2.7,0.8-3,2.2c-0.1,0.4-0.2,0.7-0.2,1.1v28c-0.1,1.7,1.1,3.1,2.8,3.2c0.2,0,0.3,0,0.5,0h26.6c1.4,0.1,2.7-0.8,3-2.2
	c0.1-0.4,0.1-0.7,0.1-1.1c0-4.3,0-8.7,0-13c0-0.3,0.1-0.6,0.3-0.8c0.8-0.9,1.7-1.8,2.6-2.8c0,0.2,0,0.4,0,0.5v16.3
	c0.1,3.2-2.4,5.9-5.6,6c-0.1,0-0.3,0-0.4,0c-9,0-17.9,0-26.9,0c-3,0.1-5.5-2.1-5.9-5c0-0.1,0-0.1-0.1-0.2L10,18z"/>
<path class="st1" d="M32.3,34.4c0.1-0.2,0.3-0.4,0.4-0.5c5.8-5.8,11.7-11.7,17.5-17.5c0.3-0.4,0.8-0.7,1.3-0.6
	c0.4,0.1,0.7,0.3,1,0.5c0.9,0.9,1.8,1.8,2.8,2.8c0.6,0.5,0.7,1.4,0.2,2c-0.1,0.1-0.2,0.2-0.2,0.2l-7,7L33.6,43
	c-0.5,0.7-1.4,0.9-2.1,0.4c-0.2-0.1-0.3-0.3-0.4-0.4C27,38.9,23,34.8,18.9,30.7c-0.6-0.5-0.8-1.4-0.3-2c0.1-0.1,0.2-0.2,0.3-0.3
	l2.7-2.7c0.5-0.6,1.4-0.8,2-0.3c0.1,0.1,0.2,0.2,0.3,0.3l8.1,8.1C32.1,34,32.2,34.2,32.3,34.4z"/>
</svg>
