<?xml version="1.0" encoding="utf-8"?>
<!-- Generator: Adobe Illustrator 25.2.1, SVG Export Plug-In . SVG Version: 6.00 Build 0)  -->
<svg version="1.1" id="Camada_1" xmlns="http://www.w3.org/2000/svg" xmlns:xlink="http://www.w3.org/1999/xlink" x="0px" y="0px"
	 viewBox="0 0 62 62" style="enable-background:new 0 0 62 62;" xml:space="preserve">
<style type="text/css">
	.st0{fill:#0095F7;}
	.st1{fill:#FFFFFF;}
</style>
<rect y="0" class="st0" width="62" height="62"/>
<g id="XMLID_1_">
	<g>
		<path class="st1" d="M48.1,18.3l-8.8,8c0-0.1,0-0.3,0-0.4c0-0.8,0-1.5,0-2.3c0-0.1,0-0.2,0-0.2c-0.1-0.6-0.6-1-1.2-0.9
			c-5.4,0-10.8-0.1-16.2,0c-3.3,0.1-6.3,1.7-8.2,4.4c-0.1,0.2-0.3,0.4-0.4,0.6c0-0.1-0.1-0.2-0.1-0.3c0-1.3,0-2.5,0-3.8
			c0.1-2.6,1.4-5,3.6-6.5c1.7-1.2,3.9-1.9,6-1.8h15c0.8,0,1.5-0.6,1.5-1.4v-3.5L48.1,18.3z"/>
		<path class="st1" d="M22.9,24.5c-3.9-0.1-7.5,2.3-8.8,6c-0.3,0.8-0.6,1.7-0.8,2.5c-0.2,0.6-0.6,1-1.2,0.9c-0.6,0-1-0.5-0.9-1.1
			c0,0,0-0.1,0-0.1c0-3.4-0.1-6.8,0.1-10.2c0.1-2.2,1.1-4.3,2.8-5.9c2.3-2.4,5.5-3.7,8.9-3.7h14.4v-0.9c0-1.3,0-2.6,0-3.9
			C37.1,7.6,37.5,7,38,6.8h0.5c0.3,0.2,0.6,0.4,0.8,0.7l10.7,9.8c0.9,0.8,0.9,1.3,0,2.1l-10.9,10L39,29.5c-0.3,0.3-0.8,0.4-1.2,0.2
			c-0.4-0.2-0.7-0.6-0.6-1v-4.1h-0.5H22.9z M21.9,22.5c5.4-0.1,10.8,0,16.2,0c0.6-0.1,1.1,0.4,1.2,0.9c0,0.1,0,0.2,0,0.2
			c0,0.8,0,1.5,0,2.3c0,0.1,0,0.3,0,0.4l8.8-8l-8.8-8.2v3.5c0,0.8-0.7,1.4-1.5,1.4h-15c-2.1-0.1-4.3,0.6-6,1.8
			c-2.2,1.4-3.5,3.8-3.6,6.5c0,1.3,0,2.5,0,3.8c0,0.1,0,0.2,0.1,0.3c0.2-0.2,0.3-0.4,0.4-0.6C15.6,24.2,18.6,22.5,21.9,22.5z"/>
	</g>
	<g>
	</g>
</g>
<g id="XMLID_2_">
	<g>
		<path class="st1" d="M48.7,34.4c0,1.6,0,3,0,4.4c0,0.5-0.1,1.1-0.2,1.6c-0.7,2.5-2.5,4.5-4.9,5.5c-1.4,0.7-2.9,1-4.4,0.9h-14
			c-1,0-1.4,0.4-1.4,1.4V52l-9.8-8.2l9.8-8.2v2.7c0,0.9,0.4,1.3,1.3,1.3h14.2c2.9,0.1,5.8-1,7.8-3.1c0.5-0.5,0.8-1,1.2-1.5
			C48.4,34.9,48.5,34.7,48.7,34.4z"/>
		<path class="st1" d="M39.2,39.6H25c-1,0-1.3-0.4-1.3-1.3v-2.7l-9.8,8.2l9.8,8.2v-3.7c0-1,0.4-1.4,1.4-1.4h14c1.5,0,3-0.3,4.4-0.9
			c2.4-1,4.2-3,4.9-5.5c0.2-0.5,0.2-1,0.2-1.6c0-1.4,0-2.9,0-4.4c-0.2,0.3-0.3,0.4-0.4,0.6c-0.4,0.5-0.8,1-1.2,1.5
			C44.9,38.6,42.1,39.7,39.2,39.6z M48,45.2c-2.3,2.4-5.5,3.8-8.9,3.7H25.8c0,0.2,0,0.3,0,0.5c0,1.5,0,2.9,0,4.4
			c0.1,0.6-0.2,1.2-0.8,1.4h-0.6c-2-1.6-4-3.3-6-5l-6.5-5.5c-0.9-0.8-0.9-1.3,0-2.1l11.9-10l0.3-0.2c0.4-0.4,1-0.3,1.4,0.1
			c0.2,0.2,0.2,0.5,0.2,0.7c0,1.2,0,2.4,0,3.6v0.6h0.5h12.8c3.9,0.1,7.5-2.3,8.8-6c0.3-0.8,0.5-1.7,0.8-2.5c0.1-0.6,0.6-1,1.2-0.9
			c0.5,0,1,0.5,0.9,1.1c0,0.1,0,0.1,0,0.2c0,3.4,0.1,6.8-0.1,10.2C50.5,41.6,49.6,43.7,48,45.2z"/>
	</g>
	<g>
	</g>
</g>
</svg>
