<svg width="22" height="22" viewBox="0 0 22 22" fill="none" xmlns="http://www.w3.org/2000/svg">
<path fill-rule="evenodd" clip-rule="evenodd" d="M6.19045 11C6.19045 8.27803 8.39704 6.07143 11.119 6.07143C13.841 6.07143 16.0476 8.27803 16.0476 11C16.0476 13.722 13.841 15.9286 11.119 15.9286C8.39704 15.9286 6.19045 13.722 6.19045 11ZM11.119 7.35714C9.10712 7.35714 7.47616 8.98811 7.47616 11C7.47616 13.0119 9.10712 14.6429 11.119 14.6429C13.1309 14.6429 14.7619 13.0119 14.7619 11C14.7619 8.98811 13.1309 7.35714 11.119 7.35714Z" fill="white"/>
<path d="M17.9762 5.42857C17.9762 6.13865 17.4005 6.71429 16.6904 6.71429C15.9804 6.71429 15.4047 6.13865 15.4047 5.42857C15.4047 4.71849 15.9804 4.14286 16.6904 4.14286C17.4005 4.14286 17.9762 4.71849 17.9762 5.42857Z" fill="white"/>
<path fill-rule="evenodd" clip-rule="evenodd" d="M0.619019 6.28571C0.619019 3.09035 3.20937 0.5 6.40473 0.5H15.8333C19.0287 0.5 21.619 3.09035 21.619 6.28571V15.7143C21.619 18.9096 19.0287 21.5 15.8333 21.5H6.40473C3.20937 21.5 0.619019 18.9096 0.619019 15.7143V6.28571ZM6.40473 1.78571C3.91945 1.78571 1.90473 3.80043 1.90473 6.28571V15.7143C1.90473 18.1996 3.91945 20.2143 6.40473 20.2143H15.8333C18.3186 20.2143 20.3333 18.1996 20.3333 15.7143V6.28571C20.3333 3.80043 18.3186 1.78571 15.8333 1.78571H6.40473Z" fill="white"/>
</svg>
