<svg width="22" height="22" viewBox="0 0 22 22" fill="none" xmlns="http://www.w3.org/2000/svg">
<path d="M18.5986 3.24121C16.5527 1.19043 13.8281 0.0625 10.9326 0.0625C4.95605 0.0625 0.0927734 4.92578 0.0927734 10.9023C0.0927734 12.8115 0.59082 14.6768 1.53809 16.3223L0 21.9375L5.74707 20.4287C7.3291 21.293 9.11133 21.7471 10.9277 21.7471H10.9326C16.9043 21.7471 21.875 16.8838 21.875 10.9072C21.875 8.01172 20.6445 5.29199 18.5986 3.24121V3.24121ZM10.9326 19.9209C9.31152 19.9209 7.72461 19.4863 6.34277 18.666L6.01562 18.4707L2.60742 19.3643L3.51562 16.0391L3.30078 15.6973C2.39746 14.2617 1.92383 12.6064 1.92383 10.9023C1.92383 5.93652 5.9668 1.89355 10.9375 1.89355C13.3447 1.89355 15.6055 2.83105 17.3047 4.53516C19.0039 6.23926 20.0488 8.5 20.0439 10.9072C20.0439 15.8779 15.8984 19.9209 10.9326 19.9209V19.9209ZM15.874 13.1729C15.6055 13.0361 14.2725 12.3818 14.0234 12.2939C13.7744 12.2012 13.5938 12.1572 13.4131 12.4307C13.2324 12.7041 12.7148 13.3096 12.5537 13.4951C12.3975 13.6758 12.2363 13.7002 11.9678 13.5635C10.376 12.7676 9.33105 12.1426 8.28125 10.3408C8.00293 9.8623 8.55957 9.89648 9.07715 8.86133C9.16504 8.68066 9.12109 8.52441 9.05273 8.3877C8.98437 8.25098 8.44238 6.91797 8.21777 6.37598C7.99805 5.84863 7.77344 5.92188 7.60742 5.91211C7.45117 5.90234 7.27051 5.90234 7.08984 5.90234C6.90918 5.90234 6.61621 5.9707 6.36719 6.23926C6.11816 6.5127 5.41992 7.16699 5.41992 8.5C5.41992 9.83301 6.3916 11.1221 6.52344 11.3027C6.66016 11.4834 8.43262 14.2178 11.1523 15.3945C12.8711 16.1367 13.5449 16.2002 14.4043 16.0732C14.9268 15.9951 16.0059 15.4189 16.2305 14.7842C16.4551 14.1494 16.4551 13.6074 16.3867 13.4951C16.3232 13.373 16.1426 13.3047 15.874 13.1729Z" fill="white"/>
</svg>
