<svg width="17" height="29" viewBox="0 0 17 29" fill="none" xmlns="http://www.w3.org/2000/svg">
<path d="M14.5122 16.8125H15.1559L15.2535 16.1763L15.9479 11.6519L16.0804 10.7881H15.2065H11.6152V8.60205C11.6152 8.09219 11.7414 7.6808 11.9788 7.4063C12.1986 7.15211 12.6067 6.90771 13.416 6.90771H15.3896H16.1396V6.15771V2.30566V1.67282L15.5158 1.56635L15.3896 2.30566C15.5158 1.56635 15.5158 1.56634 15.5157 1.56633L15.5155 1.5663L15.515 1.56622L15.5136 1.56598L15.5088 1.56516L15.4915 1.56228L15.4277 1.55192C15.3725 1.54312 15.2929 1.53071 15.1923 1.5159C14.9912 1.48631 14.706 1.44703 14.3661 1.40778C13.6896 1.32966 12.7824 1.25 11.8862 1.25C9.94708 1.25 8.26103 1.8405 7.0589 3.04377C5.856 4.24781 5.22412 5.97873 5.22412 8.08984V10.7881H2H1.25V11.5381V16.0625V16.8125H2H5.22412V27V27.75H5.97412H10.8652H11.6152V27V16.8125H14.5122Z" stroke="white" stroke-width="1.5"/>
</svg>
