<svg width="20" height="20" viewBox="0 0 20 20" fill="none" xmlns="http://www.w3.org/2000/svg">
<path d="M2.27341 0.078125C2.16013 0.117188 2.00778 0.1875 1.93356 0.234375C1.75388 0.34375 1.46872 0.667969 1.37106 0.871094C1.32809 0.960938 1.00778 2.16016 0.660125 3.53516C0.0273127 6.02344 0.0273127 6.03906 0.00778143 6.55078C-3.1075e-05 6.83984 0.0116877 7.17578 0.0351252 7.31641C0.128875 7.85547 0.371063 8.4375 0.730438 8.97266L0.957 9.31641L0.976531 14.082L0.996063 18.8477L1.12106 19.1055C1.27341 19.418 1.58981 19.7266 1.90231 19.875L2.12888 19.9805H9.99997H17.8711L18.0937 19.875C18.3554 19.7539 18.6679 19.4727 18.8047 19.2422C19.0312 18.8555 19.0273 18.9375 19.0156 15.4453L19.0039 12.2383L18.8906 12.0938C18.5703 11.668 17.8867 11.7266 17.6601 12.1953C17.5781 12.3672 17.5781 12.3906 17.5781 15.4336C17.5781 17.7656 17.5664 18.5117 17.5312 18.5469C17.4961 18.582 16.9453 18.5938 15.2851 18.5938H13.0859L13.0781 15.7695L13.0664 12.9414L12.9531 12.7969C12.7226 12.4922 12.832 12.5 9.99997 12.5C7.63278 12.5 7.47263 12.5078 7.32419 12.5742C7.1445 12.6562 7.01559 12.7852 6.957 12.9414C6.92575 13.0156 6.91403 13.9531 6.91403 15.8242V18.5938H4.71481C3.05466 18.5938 2.50388 18.582 2.46872 18.5469C2.43356 18.5117 2.42184 17.543 2.42184 14.4258C2.42184 12.1836 2.42966 10.3516 2.43747 10.3516C2.44528 10.3516 2.52731 10.3789 2.62106 10.4141C3.12888 10.5938 4.03513 10.6562 4.55075 10.5508C5.45309 10.3633 6.28903 9.87891 6.79294 9.24609L6.96481 9.03125L7.10934 9.21484C7.30075 9.44922 7.66794 9.79688 7.90231 9.95703C8.15622 10.1289 8.75387 10.4023 9.04294 10.4805C9.44919 10.5898 9.99997 10.6328 10.4023 10.5898C11.4257 10.4727 12.25 10.0312 12.9179 9.24219L13.0781 9.05078L13.1875 9.18359C13.7461 9.875 14.5625 10.3594 15.4882 10.5508C15.8203 10.6211 16.5976 10.6094 16.9609 10.5312C18.3789 10.2266 19.5117 9.12891 19.9062 7.67188C19.9648 7.45703 19.9804 7.26953 19.9804 6.73828V6.07422L19.3593 3.63281C19.0195 2.28906 18.707 1.09766 18.664 0.984375C18.5117 0.574219 18.1445 0.226562 17.707 0.0742188C17.4922 0 17.3125 0 9.98434 0C2.71481 0.00390625 2.47263 0.00390625 2.27341 0.078125ZM6.24997 4.25C6.24997 7 6.24606 7.10156 6.16794 7.38281C6.05466 7.79688 5.85153 8.14062 5.53122 8.46094C5.19528 8.79297 4.84763 8.99609 4.41013 9.10547C2.94919 9.47656 1.49606 8.375 1.41794 6.83594L1.39841 6.46484L2.01169 4.02344C2.34763 2.67969 2.64841 1.54297 2.67966 1.49219L2.73434 1.40625H4.49216H6.24997V4.25ZM12.3711 4.28516C12.3593 7.49219 12.3711 7.33203 12.082 7.90625C11.8945 8.28125 11.4101 8.76562 11.0547 8.9375C10.3828 9.26172 9.69528 9.26172 9.02341 8.9375C8.65622 8.76172 8.18356 8.27734 7.99606 7.89062C7.707 7.30078 7.71872 7.44922 7.70309 4.26562L7.69138 1.40625H10.039H12.3867L12.3711 4.28516ZM17.3047 1.46484C17.3281 1.49609 17.625 2.60547 17.9609 3.93359C18.5664 6.32422 18.5703 6.35156 18.5703 6.77734C18.5703 7.14062 18.5547 7.25 18.4687 7.49219C18.1054 8.50781 17.1992 9.17578 16.1875 9.17969C15.4922 9.17969 14.7968 8.84766 14.332 8.29297C14.1406 8.0625 13.8906 7.55078 13.832 7.27344C13.8047 7.13672 13.789 6.125 13.789 4.23828V1.40625H15.5234C17 1.40625 17.2617 1.41406 17.3047 1.46484ZM11.6406 16.2695V18.5938H9.99997H8.35934V16.2695V13.9453H9.99997H11.6406V16.2695Z" fill="white"/>
</svg>
