<svg width="25" height="25" viewBox="0 0 25 25" fill="none" xmlns="http://www.w3.org/2000/svg">
<path fill-rule="evenodd" clip-rule="evenodd" d="M6.59302 12.5C6.59302 9.32436 9.16738 6.75 12.343 6.75C15.5187 6.75 18.093 9.32436 18.093 12.5C18.093 15.6756 15.5187 18.25 12.343 18.25C9.16738 18.25 6.59302 15.6756 6.59302 12.5ZM12.343 8.25C9.99581 8.25 8.09302 10.1528 8.09302 12.5C8.09302 14.8472 9.99581 16.75 12.343 16.75C14.6902 16.75 16.593 14.8472 16.593 12.5C16.593 10.1528 14.6902 8.25 12.343 8.25Z" fill="white"/>
<path d="M20.343 6C20.343 6.82843 19.6714 7.5 18.843 7.5C18.0146 7.5 17.343 6.82843 17.343 6C17.343 5.17157 18.0146 4.5 18.843 4.5C19.6714 4.5 20.343 5.17157 20.343 6Z" fill="white"/>
<path fill-rule="evenodd" clip-rule="evenodd" d="M0.0930176 7C0.0930176 3.27208 3.1151 0.25 6.84302 0.25H17.843C21.5709 0.25 24.593 3.27208 24.593 7V18C24.593 21.7279 21.5709 24.75 17.843 24.75H6.84302C3.1151 24.75 0.0930176 21.7279 0.0930176 18V7ZM6.84302 1.75C3.94352 1.75 1.59302 4.10051 1.59302 7V18C1.59302 20.8995 3.94352 23.25 6.84302 23.25H17.843C20.7425 23.25 23.093 20.8995 23.093 18V7C23.093 4.10051 20.7425 1.75 17.843 1.75H6.84302Z" fill="white"/>
</svg>
