<svg width="28" height="21" viewBox="0 0 28 21" fill="none" xmlns="http://www.w3.org/2000/svg">
<path d="M14.1483 2.16675C14.1483 1.41675 14.1482 1.41675 14.1481 1.41675L14.1478 1.41675L14.1467 1.41675L14.1425 1.41675L14.1261 1.41676L14.0629 1.41687C14.0076 1.41699 13.9264 1.41724 13.8226 1.41773C13.615 1.41871 13.3167 1.42067 12.9531 1.42458C12.2262 1.4324 11.2369 1.44806 10.1886 1.4794C9.14153 1.51071 8.02958 1.55784 7.05932 1.62908C6.11051 1.69874 5.23306 1.79532 4.6925 1.94103L14.1483 2.16675ZM14.1483 2.16675C14.1483 1.41675 14.1483 1.41675 14.1484 1.41675M14.1483 2.16675L14.1484 1.41675M2.29639 10.5169C1.54639 10.5169 1.54639 10.5169 1.54639 10.5168L1.54639 10.5166L1.54639 10.5158L1.54639 10.5133L1.5464 10.5042L1.54651 10.4697C1.54664 10.4397 1.54689 10.396 1.54738 10.3399C1.54837 10.2277 1.55034 10.0661 1.55427 9.86654C1.56212 9.46786 1.57783 8.91627 1.60929 8.30488C1.67106 7.10459 1.79669 5.59703 2.06683 4.582L2.29639 10.5169ZM2.29639 10.5169C1.54639 10.5169 1.54639 10.517 1.54639 10.5171L1.54639 10.5173L1.54639 10.518L1.54639 10.5205L1.5464 10.5296L1.54651 10.5641C1.54664 10.5941 1.54689 10.6379 1.54738 10.694C1.54837 10.8062 1.55034 10.9678 1.55427 11.1673C1.56212 11.566 1.57783 12.1176 1.60929 12.729C1.67106 13.9292 1.79669 15.4368 2.06683 16.4518C2.41121 17.7486 3.42469 18.7179 4.69207 19.059L2.29639 10.5169ZM26.0001 10.5169C26.7501 10.5169 26.7501 10.5169 26.7501 10.5168V10.5166V10.5158L26.7501 10.5133L26.7501 10.5042L26.75 10.4697C26.7499 10.4397 26.7496 10.396 26.7491 10.3399C26.7481 10.2277 26.7462 10.0661 26.7422 9.86654C26.7344 9.46786 26.7187 8.91627 26.6872 8.30488C26.6254 7.10459 26.4998 5.59703 26.2297 4.582L26.0001 10.5169ZM26.0001 10.5169C26.7501 10.5169 26.7501 10.517 26.7501 10.5171V10.5173V10.518L26.7501 10.5205L26.7501 10.5296L26.75 10.5641C26.7499 10.5941 26.7496 10.6379 26.7491 10.694C26.7481 10.8062 26.7462 10.9678 26.7422 11.1673C26.7344 11.566 26.7187 12.1176 26.6872 12.729C26.6254 13.9294 26.4998 15.4372 26.2296 16.4523C25.8851 17.7488 24.8717 18.718 23.6044 19.059C23.0639 19.2048 22.1862 19.3014 21.2372 19.3711C20.2669 19.4423 19.155 19.4895 18.1079 19.5208C17.0596 19.5521 16.0703 19.5678 15.3434 19.5756C14.9798 19.5795 14.6815 19.5815 14.4739 19.5824C14.3701 19.5829 14.2889 19.5832 14.2336 19.5833L14.1704 19.5834L14.154 19.5834L14.1498 19.5834H14.1487H14.1484C14.1483 19.5834 14.1483 19.5834 14.1483 18.8334L26.0001 10.5169ZM23.604 1.94102C24.8846 2.28551 25.8885 3.29784 26.2296 4.58157L23.604 1.94102ZM23.604 1.94102C23.0634 1.79532 22.186 1.69874 21.2372 1.62908M23.604 1.94102L21.2372 1.62908M21.2372 1.62908C20.2669 1.55784 19.155 1.51071 18.1079 1.4794M21.2372 1.62908L18.1079 1.4794M18.1079 1.4794C17.0596 1.44806 16.0703 1.4324 15.3434 1.42458M18.1079 1.4794L15.3434 1.42458M15.3434 1.42458C14.9798 1.42067 14.6815 1.41871 14.4739 1.41773M15.3434 1.42458L14.4739 1.41773M14.4739 1.41773C14.3701 1.41724 14.2889 1.41699 14.2336 1.41687M14.4739 1.41773L14.2336 1.41687M14.2336 1.41687L14.1704 1.41676M14.2336 1.41687L14.1704 1.41676M14.1704 1.41676L14.154 1.41675M14.1704 1.41676L14.154 1.41675M14.154 1.41675L14.1498 1.41675M14.154 1.41675L14.1498 1.41675M14.1498 1.41675L14.1487 1.41675M14.1498 1.41675L14.1487 1.41675M14.1487 1.41675L14.1484 1.41675M14.1487 1.41675L14.1484 1.41675M4.69207 1.94114C3.41175 2.28578 2.40801 3.29796 2.06694 4.58157L4.69207 1.94114ZM16.4025 10.517L12.474 12.7518V8.28204L16.4025 10.517Z" stroke="white" stroke-width="1.5"/>
</svg>
