<?xml version="1.0" ?><svg style="enable-background:new 0 0 64 64;" version="1.1" viewBox="0 0 64 64" xml:space="preserve" xmlns="http://www.w3.org/2000/svg" xmlns:xlink="http://www.w3.org/1999/xlink"><style type="text/css">
	.st0{fill:#231F20;}
	.st1{fill:none;stroke:#000000;stroke-width:2;stroke-linecap:round;stroke-linejoin:round;stroke-miterlimit:10;}
</style><g id="FB"/><g id="ig"/><g id="yt"><g><path class="st0" d="M50,53H14C6.8,53,1,47.2,1,40V24c0-7.2,5.8-13,13-13h36c7.2,0,13,5.8,13,13v16C63,47.2,57.2,53,50,53z M14,13    C7.9,13,3,17.9,3,24v16c0,6.1,4.9,11,11,11h36c6.1,0,11-4.9,11-11V24c0-6.1-4.9-11-11-11H14z"/></g><g><path class="st0" d="M24,43c-0.2,0-0.4-0.1-0.5-0.1C23.2,42.7,23,42.3,23,42V22c0-0.3,0.2-0.7,0.5-0.9c0.3-0.2,0.7-0.2,1,0l20,10    c0.3,0.2,0.6,0.5,0.6,0.9s-0.2,0.7-0.6,0.9l-20,10C24.3,43,24.2,43,24,43z M25,23.6v16.8L41.8,32L25,23.6z"/></g></g><g id="twitter"/><g id="snapchat"/><g id="WA"/><g id="Pinterrest"/><g id="LinkedIn"/><g id="Messenger"/><g id="Tiktok"/><g id="VK"/><g id="Thumblr"/><g id="OK.ru"/><g id="Weibo"/></svg>