<svg width="23" height="16" viewBox="0 0 23 16" fill="none" xmlns="http://www.w3.org/2000/svg">
<path d="M20.9998 8.01345C21.6027 8.01345 21.6027 8.0135 21.6027 8.01356V8.01375V8.01432L21.6027 8.01633L21.6027 8.02368L21.6026 8.05139L21.6019 8.15578C21.6011 8.24597 21.5996 8.37592 21.5964 8.5363C21.5901 8.85682 21.5775 9.30025 21.5522 9.79176C21.5025 10.7567 21.4015 11.9687 21.1843 12.7847C20.9075 13.8271 20.0927 14.6064 19.0738 14.8806C18.6393 14.9978 17.9337 15.0755 17.1708 15.1315C16.3907 15.1888 15.4968 15.2267 14.6551 15.2518C13.8123 15.277 13.017 15.2896 12.4326 15.2959C12.1403 15.2991 11.9005 15.3006 11.7336 15.3014L11.5404 15.3021L11.4896 15.3022L11.4765 15.3022L11.4731 15.3022L11.4722 15.3022H11.4719C11.4719 15.3022 11.4718 15.3022 11.4718 14.6993C11.4718 15.3022 11.4718 15.3022 11.4717 15.3022H11.4715L11.4706 15.3022L11.4672 15.3022L11.454 15.3022L11.4032 15.3021L11.21 15.3014C11.0431 15.3006 10.8033 15.2991 10.511 15.2959C9.92666 15.2896 9.13131 15.277 8.28857 15.2518C7.4468 15.2267 6.55289 15.1888 5.77287 15.1315C5.00991 15.0755 4.30433 14.9978 3.86979 14.8806C2.85103 14.6064 2.03634 13.8273 1.75939 12.785L20.9998 8.01345ZM20.9998 8.01345C21.6027 8.01345 21.6027 8.0134 21.6027 8.01334V8.01316V8.01258L21.6027 8.01058L21.6027 8.00322L21.6026 7.97552L21.6019 7.87112C21.6011 7.78093 21.5996 7.65099 21.5964 7.4906C21.5901 7.17009 21.5775 6.72666 21.5522 6.23514C21.5025 5.27021 21.4015 4.05824 21.1843 3.24224C20.9102 2.21006 20.1031 1.39608 19.0735 1.1191M20.9998 8.01345L19.0735 1.1191M1.94385 8.01345C1.34091 8.01345 1.34091 8.0135 1.34091 8.01356L1.34091 8.01375L1.34091 8.01432L1.34091 8.01633L1.34092 8.02368L1.34101 8.05139L1.34171 8.15578C1.3425 8.24597 1.34409 8.37592 1.34725 8.5363C1.35356 8.85682 1.36618 9.30025 1.39148 9.79176C1.44114 10.7567 1.54213 11.9687 1.7593 12.7847L1.94385 8.01345ZM1.94385 8.01345C1.34091 8.01345 1.34091 8.0134 1.34091 8.01334L1.34091 8.01316L1.34091 8.01258L1.34091 8.01058L1.34092 8.00322L1.34101 7.97552L1.34171 7.87112C1.3425 7.78093 1.34409 7.65099 1.34725 7.4906C1.35356 7.17009 1.36618 6.72666 1.39148 6.23514C1.44114 5.27021 1.54213 4.05824 1.7593 3.24224L1.94385 8.01345ZM19.0735 1.1191C18.6389 1.00197 17.9335 0.924322 17.1708 0.868322M19.0735 1.1191L17.1708 0.868322M11.4718 1.30057C11.4718 0.697626 11.4718 0.697626 11.4717 0.697626H11.4715L11.4706 0.697627L11.4672 0.697628L11.454 0.697639L11.4032 0.697726L11.21 0.698416C11.0431 0.699204 10.8033 0.700778 10.511 0.703923C9.92666 0.710212 9.13131 0.722795 8.28857 0.747993C7.44681 0.773161 6.55289 0.811054 5.77287 0.868322C5.0101 0.924323 4.3047 1.00197 3.87013 1.11911L11.4718 1.30057ZM11.4718 1.30057C11.4718 0.697626 11.4719 0.697626 11.4719 0.697626M11.4718 1.30057L11.4719 0.697626M17.1708 0.868322C16.3908 0.811054 15.4968 0.773161 14.6551 0.747993M17.1708 0.868322L14.6551 0.747993M14.6551 0.747993C13.8123 0.722795 13.017 0.710212 12.4326 0.703923M14.6551 0.747993L12.4326 0.703923M12.4326 0.703923C12.1403 0.700778 11.9005 0.699204 11.7336 0.698416M12.4326 0.703923L11.7336 0.698416M11.7336 0.698416L11.5404 0.697726M11.7336 0.698416L11.5404 0.697726M11.5404 0.697726L11.4896 0.697639M11.5404 0.697726L11.4896 0.697639M11.4896 0.697639L11.4765 0.697628M11.4896 0.697639L11.4765 0.697628M11.4765 0.697628L11.4731 0.697627M11.4765 0.697628L11.4731 0.697627M11.4731 0.697627L11.4722 0.697626M11.4731 0.697627L11.4722 0.697626M11.4722 0.697626H11.4719M11.4722 0.697626H11.4719M3.86979 1.1192C2.84051 1.39626 2.03359 2.20997 1.75939 3.2419L3.86979 1.1192ZM13.2841 8.01351L10.1258 9.81015V6.21678L13.2841 8.01351Z" stroke="white" stroke-width="1.20588"/>
</svg>
